<?xml version="1.0" encoding="utf-8"?>
<!-- Generator: Adobe Illustrator 24.3.0, SVG Export Plug-In . SVG Version: 6.00 Build 0)  -->
<svg version="1.1" id="Layer_1" xmlns="http://www.w3.org/2000/svg" xmlns:xlink="http://www.w3.org/1999/xlink" x="0px" y="0px"
	 viewBox="0 0 100 100" style="enable-background:new 0 0 100 100;" xml:space="preserve">
<style type="text/css">
	.st0{fill:#1A1A1A;}
</style>
<g transform="translate(50 50) scale(0.69 0.69) rotate(0) translate(-50 -50)">
	<path class="st0" d="M38.47,33.86c-0.01-6.37,5.15-11.54,11.52-11.55c6.37-0.01,11.54,5.15,11.55,11.52
		c0.01,4.83-2.99,9.15-7.52,10.83V95h-8.03V44.66C41.47,42.98,38.48,38.67,38.47,33.86z M78.12,61.98c0.98,0.98,2.57,0.99,3.56,0
		c0.03-0.03,0.07-0.07,0.1-0.11c14.12-16.01,14.12-40.03,0-56.04c-0.92-1.04-2.51-1.13-3.54-0.21c-1.03,0.92-1.13,2.5-0.22,3.53
		c12.44,14.11,12.44,35.28,0,49.39C77.14,59.55,77.19,61.05,78.12,61.98z M21.88,61.98c0.93-0.93,0.98-2.44,0.1-3.42
		c-12.44-14.11-12.44-35.28,0-49.39c0.92-1.04,0.81-2.63-0.23-3.54c-1.04-0.91-2.62-0.81-3.53,0.22C4.1,21.85,4.1,45.87,18.22,61.88
		c0.92,1.04,2.51,1.13,3.55,0.2C21.81,62.05,21.84,62.02,21.88,61.98z M32.52,51.34c0.91-0.93,0.97-2.4,0.14-3.4
		c-6.68-8.2-6.68-19.97,0-28.17c0.84-1,0.78-2.47-0.14-3.4c-0.97-0.98-2.55-0.99-3.53-0.03c-0.05,0.05-0.1,0.11-0.15,0.16
		c-8.28,10.08-8.28,24.61,0,34.69c0.89,1.05,2.47,1.18,3.52,0.28C32.41,51.44,32.47,51.39,32.52,51.34L32.52,51.34z M67.48,51.34
		c0.97,0.98,2.55,0.99,3.53,0.03c0.05-0.05,0.1-0.11,0.15-0.16c8.28-10.08,8.28-24.61,0-34.69c-0.89-1.05-2.47-1.18-3.52-0.28
		c-0.06,0.05-0.11,0.1-0.16,0.15c-0.91,0.93-0.97,2.4-0.14,3.4c6.68,8.2,6.68,19.97,0,28.17C66.51,48.94,66.57,50.41,67.48,51.34
		L67.48,51.34z"/>
</g>
</svg>
