<?xml version="1.0" encoding="utf-8"?>
<!-- Generator: Adobe Illustrator 24.3.0, SVG Export Plug-In . SVG Version: 6.00 Build 0)  -->
<svg version="1.1" id="Layer_1" xmlns="http://www.w3.org/2000/svg" xmlns:xlink="http://www.w3.org/1999/xlink" x="0px" y="0px"
	 viewBox="0 0 256 256" style="enable-background:new 0 0 256 256;" xml:space="preserve">
<style type="text/css">
	.st0{fill:#1A1A1A;}
</style>
<g transform="translate(50 50) scale(0.69 0.69) rotate(0) translate(-50 -50)">
	<path class="st0" d="M235.46,113.46H90.69c-7.5,0-13.57-6.08-13.57-13.57s6.08-13.57,13.57-13.57h144.76
		c7.5,0,13.57,6.08,13.57,13.57S242.95,113.46,235.46,113.46z"/>
	<path class="st0" d="M235.46,176.79H90.69c-7.5,0-13.57-6.08-13.57-13.57c0-7.5,6.08-13.57,13.57-13.57h144.76
		c7.5,0,13.57,6.08,13.57,13.57C249.03,170.71,242.95,176.79,235.46,176.79z"/>
	<path class="st0" d="M235.46,240.12H90.69c-7.5,0-13.57-6.08-13.57-13.57s6.08-13.57,13.57-13.57h144.76
		c7.5,0,13.57,6.08,13.57,13.57S242.95,240.12,235.46,240.12z"/>
	<path class="st0" d="M163.08,348.69c-102.44,0-185.48-83.04-185.48-185.48S60.64-22.26,163.08-22.26s185.48,83.04,185.48,185.48
		S265.51,348.69,163.08,348.69z M163.08,4.89C75.63,4.89,4.74,75.77,4.74,163.22s70.89,158.33,158.33,158.33
		s158.33-70.89,158.33-158.33S250.52,4.89,163.08,4.89z"/>
</g>
</svg>
